Coordinates
version=1
nRows=14
nColumns=36
inDegrees=yes

Units are S.I. units (second, meters, Newtons, ...)
If the header above contains a line with 'inDegrees', this indicates whether rotational values are in degrees (yes) or radians (no).

endheader
time	pelvis_tilt	pelvis_list	pelvis_rotation	pelvis_tx	pelvis_ty	pelvis_tz	hip_flexion_r	hip_adduction_r	hip_rotation_r	knee_angle_r	knee_angle_r_beta	ankle_angle_r	subtalar_angle_r	mtp_angle_r	hip_flexion_l	hip_adduction_l	hip_rotation_l	knee_angle_l	knee_angle_l_beta	ankle_angle_l	subtalar_angle_l	mtp_angle_l	lumbar_extension	lumbar_bending	lumbar_rotation	arm_flex_r	arm_add_r	arm_rot_r	elbow_flex_r	pro_sup_r	arm_flex_l	arm_add_l	arm_rot_l	elbow_flex_l	pro_sup_l
      0.96666670	    -23.94296579	      1.72075267	      1.67803974	     -0.91829440	      1.11230897	     -0.05332238	     50.94560181	      2.83622616	      6.56415595	     56.91372191	      0.99333184	     26.89364448	    -32.15610103	     -7.49999987	     49.70600469	     -0.81706252	      1.43603629	     54.37041017	      0.94894267	     29.49348822	     -2.13024098	     -7.49999987	    -18.81041936	      0.61832576	      1.00874810	      7.16905668	    -14.40934611	      6.56769162	     34.12307861	     80.73651253	      5.26141895	    -15.39717844	     15.59563522	     45.52556669	     82.62975416
      0.97083330	    -24.36412726	      2.00750859	      1.84209541	     -0.91311404	      1.10473941	     -0.05801731	     52.20061232	      2.46076167	      6.76429798	     59.02071705	      1.03010584	     27.98769136	    -31.93761311	     -7.49999987	     50.72979872	     -0.43621694	      1.24901675	     55.73244337	      0.97271464	     30.72498219	     -1.52415578	     -7.49999987	    -17.90600823	      0.48233292	      0.84650709	      6.95618659	    -14.64175921	      6.52673275	     34.12858767	     80.90786638	      4.94510682	    -15.30073971	     15.74889411	     45.44007826	     82.79446749
      0.97500000	    -24.68524049	      2.25199815	      2.09081864	     -0.91343211	      1.10474421	     -0.05818511	     53.32615531	      2.06264043	      6.92380049	     60.89019199	      1.06273433	     28.78761759	    -31.78591551	     -7.49999987	     51.32936214	      0.01421386	      1.23541839	     56.64876426	      0.98870745	     31.39869123	     -1.69901432	     -7.49999987	    -17.26210338	      0.31524113	      0.78690481	      6.68605930	    -14.72744093	      6.30852339	     34.01877085	     79.51781488	      4.97542741	    -15.11303420	     16.11264293	     45.04208759	     81.23270695
      0.97916670	    -25.09180469	      2.59136488	      2.25894566	     -0.91416953	      1.10065512	     -0.05813536	     54.33276726	      1.63825299	      7.15417017	     62.24426270	      1.08636732	     29.45319284	    -31.48013563	     -7.49999987	     51.96911127	      0.47797728	      1.14550536	     57.42990568	      1.00234094	     31.78179117	     -1.96429683	     -7.49999987	    -16.58876547	     -0.01758035	      0.86420377	      6.42701880	    -14.85753997	      6.27645788	     34.37584916	     79.00664799	      4.95999121	    -15.03329883	     16.52363929	     44.89537586	     80.57392779
      0.98333330	    -25.11247009	      2.73558493	      2.38402995	     -0.90833287	      1.10132394	     -0.05381787	     54.35206449	      1.60657718	      7.24922082	     62.82890793	      1.09657131	     29.71659709	    -31.45249772	     -7.49999987	     51.93427632	      0.49833442	      1.02473080	     57.76854444	      1.00825130	     32.11779184	     -1.62080146	     -7.49999987	    -16.37844126	     -0.23801934	      0.96529880	      6.27907594	    -14.80614199	      6.44031538	     34.29060484	     79.15764564	      4.94617382	    -15.00833130	     16.62638794	     44.73554237	     80.70107759
      0.98750000	    -25.61283039	      3.00002871	      2.25998542	     -0.90856716	      1.09705877	     -0.05346363	     55.02160726	      1.64105659	      7.48410034	     63.37784828	      1.10615213	     30.11454574	    -31.10618191	     -7.49999987	     52.46971197	      0.33237450	      0.39974734	     58.22149050	      1.01615670	     32.67360305	     -0.60170817	     -7.49999987	    -15.58478433	     -0.60643812	      1.41106476	      6.17556759	    -14.73903460	      7.12473249	     33.64104553	     78.10375090	      5.04432652	    -15.00556002	     17.45433413	     44.42151472	     79.45229387
      0.99166670	    -25.93267489	      3.06233151	      2.33224334	     -0.90852912	      1.09700883	     -0.05332514	     55.23863611	      1.68410753	      7.57357133	     63.38503682	      1.10627759	     30.61898400	    -30.83166286	     -7.49999987	     52.65011254	      0.23540070	      0.29464160	     58.26173763	      1.01685915	     32.78336637	     -0.50265055	     -7.49999987	    -15.28788002	     -0.75921170	      1.39265568	      6.30841660	    -14.70595613	      7.00567180	     33.47467481	     82.36414591	      5.19235099	    -15.12879239	     17.52436879	     44.45815518	     83.58412306
      0.99583330	    -25.50212473	      3.29208316	      2.35952990	     -0.90275663	      1.09720422	     -0.05831438	     54.73111980	      1.32618322	      7.42111351	     63.77505768	      1.11308474	     30.72834206	    -30.72394468	     -7.49999987	     51.92573964	      0.56118612	      0.16526983	     58.53332084	      1.02159917	     33.08589707	     -0.53632989	     -7.49999987	    -15.65488523	     -1.02467527	      1.38317620	      6.56668915	    -14.64434876	      7.09653140	     32.92042408	     82.38725635	      5.36020876	    -15.08000813	     17.91373450	     44.35040905	     83.58007916
      1.00000000	    -25.34129835	      3.51358800	      2.36552430	     -0.90295548	      1.09715372	     -0.05820320	     54.60679023	      0.96816258	      7.31894846	     64.08624557	      1.11851599	     31.21733317	    -30.51198038	     -7.49999987	     51.64143964	      0.93825356	      0.06702550	     58.68629890	      1.02426914	     32.94690297	     -1.31701094	     -7.49999987	    -16.26945371	     -1.18698560	      1.32786586	      6.35773125	    -14.82740832	      7.03135264	     34.18776310	     80.61152026	      5.25835611	    -15.14430951	     17.95695949	     45.27126111	     81.67932854
      1.00416670	    -25.14546690	      3.52477028	      2.13088680	     -0.90292156	      1.08965353	     -0.05751088	     54.66747401	      1.08006713	      7.36667928	     64.88118550	      1.13239031	     31.69895264	    -30.52173318	     -7.49999987	     51.93124251	      0.91999403	      0.08799327	     59.78302159	      1.04341056	     33.62742472	     -1.75561844	     -7.49999987	    -16.36242482	     -1.19802115	      1.27264538	      7.16148473	    -14.61095977	      7.34008287	     32.21255039	     80.69462166	      5.64748196	    -15.16772605	     18.47342836	     44.49044177	     81.66936053
      1.00833330	    -24.94055783	      3.41190033	      1.82656354	     -0.89704943	      1.08955737	     -0.06200889	     54.38713817	      1.18538255	      7.47639972	     65.31447263	      1.13995260	     32.15884665	    -30.47290789	     -7.49999987	     52.20410797	      0.98797305	      0.24669052	     61.18816859	      1.06793501	     34.07214698	     -2.40958850	     -7.49999987	    -16.77700503	     -0.95973533	      1.44741107	      7.32871199	    -14.82254977	      7.43634784	     31.95302289	     80.77374583	      5.69445107	    -14.91629026	     18.56109910	     44.42994526	     81.69975849
      1.01250000	    -24.90770411	      3.39859272	      1.67974335	     -0.89203725	      1.08923424	     -0.05766588	     54.00898239	      1.29381710	      7.70133819	     65.28870598	      1.13950288	     32.37107347	    -30.47484653	     -7.49999987	     52.07678986	      1.05996108	      0.53536973	     61.50911088	      1.07353650	     34.29434385	     -2.69269450	     -7.49999987	    -16.75044995	     -1.01633465	      1.52157469	      7.34493997	    -14.63292084	      7.49317282	     31.85560843	     80.79236424	      5.69812076	    -14.76171587	     18.59731992	     44.39730030	     81.70484872
      1.01666670	    -23.93965049	      3.32733182	      1.40182649	     -0.89203324	      1.09035263	     -0.06660859	     52.65950856	      1.13050546	      7.64238965	     65.22642089	      1.13841580	     32.98950284	    -29.90848022	     -7.49999987	     51.04736447	      1.59914421	      1.13740227	     61.92852457	      1.08085665	     34.33577939	     -4.49215981	     -7.49999987	    -18.19316407	     -0.61442309	      1.77953306	      8.35320799	    -14.88392821	      8.03064250	     30.33715203	     81.08235218	      6.54944618	    -13.92988876	     18.88091869	     43.24866402	     81.76292945
      1.02083330	    -23.29062628	      3.31190012	      1.06110985	     -0.88726069	      1.08733630	     -0.07113091	     51.82194726	      0.92328301	      7.65997462	     65.31393554	      1.13994322	     33.53416031	    -29.38441160	     -7.49999987	     50.42023475	      1.96882163	      1.35291997	     62.50367878	      1.09089499	     34.84309537	     -5.69075548	     -7.49999987	    -19.12645857	     -0.18948680	      1.97419701	      8.93493213	    -15.18737833	      8.25539993	     29.64033735	     79.72723448	      6.98854471	    -13.01386402	     19.13129823	     42.66962072	     80.34651688
